<svg xmlns="http://www.w3.org/2000/svg" width="386" height="126" viewBox="0 0 386 126" version="1.1"><path d="M 50.500 28.621 C 46.440 30.621, 44.372 31.011, 39.500 30.696 C 36.200 30.483, 32.825 30.127, 32 29.904 C 31.154 29.676, 30.500 30.154, 30.500 31 C 30.500 31.958, 32.214 32.923, 35.244 33.671 C 40.457 34.958, 44.660 34.221, 51.250 30.868 L 55 28.959 55 33.236 C 55 38.755, 56.273 43.084, 59.531 48.643 C 61.702 52.348, 62.404 52.910, 63.610 51.909 C 64.870 50.863, 64.798 50.414, 63.081 48.586 C 59.783 45.075, 58 39.443, 58 32.532 C 58 25.062, 57.866 24.992, 50.500 28.621 M 69 32.050 C 69 37.084, 71.079 41.319, 76.119 46.549 L 80.021 50.597 74.779 52.482 C 69.729 54.298, 60 62.507, 60 64.952 C 60 67.156, 62.874 65.854, 65.443 62.485 C 68.100 59.002, 74.211 55.337, 81.047 53.126 L 84.593 51.979 79.436 46.655 C 75.453 42.542, 73.996 40.152, 73.037 36.153 C 72.354 33.306, 72.052 30.307, 72.366 29.488 C 72.753 28.481, 72.301 28, 70.969 28 C 69.335 28, 69 28.688, 69 32.050 M 227.250 34.745 C 224.059 36.333, 224 36.487, 224 43.181 L 224 50 221 50 C 218.645 50, 218 50.440, 218 52.044 C 218 53.168, 218.563 54.015, 219.250 53.925 C 223.996 53.309, 224 53.319, 224 66.266 C 224 76.230, 224.344 79.185, 225.835 82.016 C 228.787 87.621, 239.411 91.778, 238.689 87.045 C 238.525 85.969, 237.686 84.282, 236.824 83.295 C 233.571 79.568, 233 76.933, 233 65.632 L 233 54.133 235.741 53.816 C 237.395 53.626, 238.615 52.805, 238.815 51.750 C 239.073 50.391, 238.460 50, 236.073 50 L 233 50 233 41.500 C 233 32.196, 232.813 31.977, 227.250 34.745 M 269.007 33.750 C 269.010 34.163, 269.907 35.850, 271 37.500 C 272.816 40.242, 272.987 42.224, 272.993 60.515 C 272.999 78.627, 272.810 80.884, 271 84.261 C 269.900 86.314, 269 88.219, 269 88.496 C 269 88.773, 272.652 89, 277.117 89 C 286.136 89, 285.693 89.605, 282.610 81.500 C 281.418 78.369, 281.078 72.668, 281.044 55.250 L 281 33 275 33 C 271.700 33, 269.003 33.337, 269.007 33.750 M 325 34.035 C 325 34.605, 325.788 36.271, 326.750 37.738 C 328.271 40.056, 328.541 43.586, 328.814 64.665 L 329.128 88.924 332.314 88.332 C 334.066 88.005, 335.725 87.718, 336 87.693 C 336.275 87.668, 340.005 88.007, 344.289 88.445 C 353.901 89.429, 359.208 87.726, 364.383 81.998 C 378.366 66.520, 361.089 43.380, 341.622 51.513 L 338 53.027 338 43.013 L 338 33 331.500 33 C 327.686 33, 325 33.428, 325 34.035 M 148.024 37.697 C 146.911 39.112, 146 40.679, 146 41.180 C 146 42.459, 150.681 47, 152 47 C 153.332 47, 158 42.453, 158 41.156 C 158 39.391, 154.498 35.957, 152.274 35.541 C 150.752 35.256, 149.407 35.939, 148.024 37.697 M 203 37 C 200.679 39.321, 200.449 41.864, 202.328 44.434 C 203.856 46.523, 208.293 46.832, 210.497 45.003 C 212.778 43.109, 212.375 38.376, 209.777 36.557 C 206.840 34.499, 205.407 34.593, 203 37 M 23.312 43.599 C 25.759 52.179, 24.748 59.769, 20.482 64.839 C 18.409 67.303, 18.240 67.954, 19.420 68.934 C 20.545 69.868, 21.386 69.360, 23.662 66.374 C 26.254 62.972, 26.500 61.927, 26.500 54.324 C 26.500 49.746, 26.576 46, 26.669 46 C 26.762 46, 29.568 46.699, 32.903 47.554 C 37.729 48.790, 40.127 48.893, 44.647 48.058 C 50.986 46.886, 51.826 46.426, 50.344 44.944 C 49.647 44.247, 47.900 44.302, 44.861 45.115 C 41.202 46.093, 39.153 46.024, 33.450 44.729 C 29.628 43.860, 25.661 42.823, 24.635 42.424 C 23.133 41.839, 22.875 42.068, 23.312 43.599 M 99 50.865 C 99 51.341, 100.013 52.996, 101.250 54.543 C 102.487 56.090, 106.256 64.364, 109.624 72.928 L 115.747 88.500 120.195 88.798 L 124.644 89.095 130.918 72.798 C 135.002 62.191, 138.032 55.789, 139.596 54.462 C 143.255 51.361, 142.633 50, 137.559 50 C 132.526 50, 131.403 51.017, 133.046 54.086 C 133.998 55.865, 133.321 58.493, 128.915 70.130 C 126.018 77.784, 123.342 83.699, 122.971 83.273 C 122.599 82.848, 120.167 77.118, 117.565 70.540 C 113.551 60.388, 112.933 57.931, 113.479 54.290 L 114.123 50 106.561 50 C 102.403 50, 99 50.389, 99 50.865 M 146 51.386 C 146 52.148, 146.672 54.060, 147.494 55.636 C 149.568 59.612, 149.572 78.696, 147.500 83.654 C 146.675 85.629, 146 87.639, 146 88.122 C 146 88.605, 149.150 89, 153 89 C 159.074 89, 160 88.762, 160 87.200 C 160 86.210, 159.438 84.838, 158.750 84.152 C 157.881 83.284, 157.398 77.888, 157.164 66.452 L 156.828 50 151.414 50 C 147.467 50, 146 50.375, 146 51.386 M 175 50.652 C 169.416 52.492, 166 56.344, 166 60.802 C 166 63.377, 170.821 68.242, 176.678 71.577 C 182.863 75.099, 188 79.901, 188 82.161 C 188 84.654, 184.934 86, 179.253 86 C 175.137 86, 173.924 85.531, 171.500 83 C 167.662 78.994, 165.783 79.073, 166.187 83.224 C 166.459 86.022, 167.028 86.606, 170.500 87.647 C 172.700 88.307, 177.797 88.881, 181.827 88.923 C 188.640 88.995, 189.359 88.795, 192.077 86.077 C 198.545 79.609, 194.910 72.302, 181.115 64.041 C 176.102 61.038, 172 58.071, 172 57.446 C 172 56.074, 174.810 53.550, 177.341 52.648 C 179.505 51.878, 185.604 54.525, 186.391 56.577 C 186.692 57.360, 187.851 58, 188.969 58 C 190.534 58, 191 57.348, 191 55.158 C 191 52.726, 190.443 52.150, 187.134 51.158 C 183.210 49.983, 177.726 49.754, 175 50.652 M 200 51.035 C 200 51.605, 200.783 53.266, 201.741 54.727 C 203.044 56.717, 203.573 60.064, 203.847 68.058 C 204.161 77.244, 203.918 79.396, 202.106 83.493 C 200.948 86.112, 200 88.422, 200 88.627 C 200 88.832, 203.375 89, 207.500 89 C 215.568 89, 216.103 88.554, 213.500 84 C 212.432 82.132, 212.062 77.517, 212.035 65.750 L 212 50 206 50 C 202.531 50, 200 50.437, 200 51.035 M 298.893 51.497 C 296.592 52.748, 293 56.995, 293 58.465 C 293 58.759, 294.462 59, 296.250 59 C 298.766 59, 300.131 58.209, 302.293 55.500 C 306.773 49.885, 311.094 51.532, 312.557 59.411 C 313.213 62.946, 313.105 63.254, 311.437 62.614 C 310.421 62.224, 307.770 61.675, 305.545 61.392 C 294.925 60.045, 287.274 71.895, 292.384 81.777 C 295.352 87.515, 298.048 88.500, 310.794 88.500 L 322.173 88.500 321.836 74 C 321.557 61.962, 321.189 59.041, 319.667 56.799 C 315.797 51.096, 304.797 48.288, 298.893 51.497 M 343.263 54.126 C 334.502 56.628, 334.728 74.164, 343.622 81.973 C 347.690 85.545, 350.938 86.521, 354.646 85.285 C 364.231 82.090, 363.673 64.102, 353.759 56.674 C 349.579 53.542, 347.269 52.981, 343.263 54.126 M 38 59.550 C 38 64.562, 36.486 68.101, 31.285 75.250 L 27.830 80 30.733 80 C 37.165 80, 43.736 82.893, 47.807 87.518 C 51.416 91.618, 54 93.168, 54 91.232 C 54 90.810, 52.862 88.790, 51.471 86.743 C 48.535 82.422, 45.113 80.432, 37.991 78.905 C 32.987 77.832, 32.915 77.765, 34.475 75.655 C 37.276 71.865, 40.800 63.633, 41.499 59.250 C 42.114 55.391, 41.984 55, 40.088 55 C 38.277 55, 38 55.603, 38 59.550 M 298.733 65.750 C 296.053 68.724, 295.621 72.719, 297.459 77.533 C 301.861 89.058, 313.342 88.720, 313.182 77.069 C 313.049 67.477, 303.745 60.188, 298.733 65.750 M 46 67.945 C 46 69.249, 46.960 70.052, 49.074 70.516 C 52.988 71.376, 58.291 76.026, 62.522 82.309 L 65.833 87.225 67.534 83.862 C 71.642 75.747, 78.452 70, 83.960 70 C 85.107 70, 86 69.343, 86 68.500 C 86 66.353, 81.697 66.604, 76.947 69.027 C 73.476 70.798, 69.925 74.687, 66.499 80.469 C 65.636 81.924, 65.053 81.530, 62.302 77.626 C 59.227 73.264, 53.599 68.939, 48.451 66.982 C 46.384 66.195, 46 66.346, 46 67.945" stroke="none" fill="#223c73" fill-rule="evenodd"/></svg>